<?xml version="1.0" standalone="no"?>
<!DOCTYPE svg PUBLIC "-//W3C//DTD SVG 20010904//EN"
 "http://www.w3.org/TR/2001/REC-SVG-20010904/DTD/svg10.dtd">
<svg version="1.0" xmlns="http://www.w3.org/2000/svg"
 width="300.000000pt" height="300.000000pt" viewBox="0 0 300.000000 300.000000"
 preserveAspectRatio="xMidYMid meet">
<metadata>
Created by potrace 1.15, written by Peter Selinger 2001-2017
</metadata>
<g transform="translate(0.000000,300.000000) scale(0.100000,-0.100000)"
fill="#000000" stroke="none">
<path d="M1415 2790 c-223 -35 -410 -144 -642 -376 -79 -78 -143 -147 -143
-154 0 -15 292 -510 301 -510 3 0 21 21 39 46 51 71 258 276 321 318 74 48
134 66 229 66 152 0 227 -52 245 -170 14 -98 -36 -220 -136 -324 -81 -86 -215
-169 -424 -264 -77 -35 -143 -67 -147 -70 -4 -4 9 -135 27 -292 19 -157 35
-293 35 -304 0 -13 5 -16 18 -11 9 3 129 42 267 86 137 44 250 81 252 82 1 2
-15 61 -37 132 -22 71 -38 130 -37 131 1 1 67 34 147 74 187 94 275 154 381
259 169 169 249 331 257 521 5 131 -13 212 -73 335 -96 198 -306 358 -535 410
-90 20 -263 27 -345 15z m335 -111 c203 -51 377 -183 458 -349 95 -193 97
-352 8 -528 -108 -214 -314 -383 -641 -525 -49 -21 -94 -42 -98 -46 -5 -5 8
-60 27 -123 20 -63 36 -119 36 -124 0 -11 -326 -121 -334 -113 -3 2 -14 83
-26 179 -11 96 -23 189 -26 207 l-5 32 190 96 c294 148 393 233 480 415 34 71
36 81 36 175 0 118 -16 158 -90 223 -65 57 -128 77 -245 77 -175 0 -264 -47
-458 -241 -119 -119 -123 -122 -137 -101 -7 12 -52 87 -99 166 -63 107 -82
149 -76 161 15 29 200 200 276 256 235 174 469 226 724 163z"/>
<path d="M1370 786 c-236 -80 -244 -83 -251 -112 -10 -41 -52 -404 -47 -409 5
-5 642 -64 647 -60 4 4 -77 619 -85 648 -3 9 -8 17 -12 16 -4 0 -117 -37 -252
-83z m215 -259 c14 -115 24 -211 21 -214 -6 -6 -424 31 -431 39 -2 2 3 66 13
143 l17 138 170 56 c94 31 173 54 177 51 3 -3 18 -99 33 -213z"/>
</g>
</svg>
